# xmcd CD database file generated by OrangeCD 5.2
#
# Track frame offsets:
#	150
#	18662
#	36967
#	56377
#	75217
#	91142
#	103700
#	119620
#	139440
#	155367
#	171867
#	184817
#	205057
#	220402
#
# Disc length: 3109 seconds
#
# Revision: 1
# Processed by: cddbd v1.5.1PL0 Copyright (c) Steve Scherf et al.
# Submitted via: OrangeCD 5.2
#
DISCID=be0c230e
DTITLE=Hellbillies - Lakafant
DYEAR=1995
DGENRE=Country
TTITLE0=Tolleiv
TTITLE1=So som so
TTITLE2=Syver-Space
TTITLE3=Me få sjå
TTITLE4=Sumlepave
TTITLE5=Abbor-terapi
TTITLE6=Kule Knallert-Kari
TTITLE7=Fellesferie
TTITLE8=Mynt og kron
TTITLE9=Bus-general
TTITLE10=Unkars-livet rauk
TTITLE11=Lakafant
TTITLE12=Som ein båt på land
TTITLE13=The Claw
EXTD=
EXTT0=
EXTT1=
EXTT2=
EXTT3=
EXTT4=
EXTT5=
EXTT6=
EXTT7=
EXTT8=
EXTT9=
EXTT10=
EXTT11=
EXTT12=
EXTT13=
PLAYORDER=
